<svg height="512pt" viewBox="0 0 512.001 512" width="512pt" xmlns="http://www.w3.org/2000/svg"><path d="m358.226562 59.234375h31.152344v75.140625h-31.152344zm0 0" fill="#d1ffff"/><path d="m459.460938 263.210938h-175.132813c-7.964844 0-14.421875-6.457032-14.421875-14.421876v-119.5c0-7.964843 6.457031-14.421874 14.421875-14.421874h175.132813c7.964843 0 14.421874 6.457031 14.421874 14.421874v119.5c0 7.964844-6.457031 14.421876-14.421874 14.421876zm0 0" fill="#4c779f"/><path d="m459.460938 114.867188h-30.90625c7.964843 0 14.425781 6.457031 14.425781 14.421874v119.5c0 7.964844-6.457031 14.421876-14.425781 14.421876h30.90625c7.964843 0 14.421874-6.457032 14.421874-14.421876v-119.5c0-7.964843-6.457031-14.421874-14.421874-14.421874zm0 0" fill="#3a5c7a"/><path d="m389.257812 319.582031h-30.90625v-139.394531c0-8.535156 6.917969-15.453125 15.453126-15.453125 8.535156 0 15.453124 6.917969 15.453124 15.453125zm0 0" fill="#d1ffff"/><path d="m440.765625 78.742188h-133.921875c-2.277344 0-4.121094-1.84375-4.121094-4.121094v-43.265625c0-2.277344 1.84375-4.121094 4.121094-4.121094h133.921875c2.277344 0 4.121094 1.84375 4.121094 4.121094v43.269531c0 2.273438-1.84375 4.117188-4.121094 4.117188zm0 0" fill="#bdf9ff"/><path d="m440.765625 27.234375h-30.90625c2.277344 0 4.121094 1.84375 4.121094 4.121094v43.269531c0 2.273438-1.84375 4.121094-4.121094 4.121094h30.90625c2.277344 0 4.121094-1.847656 4.121094-4.121094v-43.269531c0-2.277344-1.84375-4.121094-4.121094-4.121094zm0 0" fill="#8cf2ff"/><path d="m226.085938 318.839844h-160.121094v-65.707032c0-44.21875 35.84375-80.0625 80.0625-80.0625 44.214844 0 80.058594 35.84375 80.058594 80.0625zm0 0" fill="#60d9fe"/><path d="m146.027344 173.070312c-5.289063 0-10.453125.527344-15.453125 1.503907 36.820312 7.203125 64.609375 39.628906 64.609375 78.558593v65.707032h30.902344v-65.707032c0-44.21875-35.84375-80.0625-80.058594-80.0625zm0 0" fill="#40ccf7"/><path d="m192.222656 187.761719c-4.574218 5.347656-10.054687 9.898437-16.214844 13.390625-8.839843 5.039062-19.078124 7.914062-29.980468 7.914062-18.492188 0-35.046875-8.273437-46.191406-21.304687 6.519531-4.617188 13.773437-8.292969 21.542968-10.808594 3.027344-.976563 6.128906-1.792969 9.300782-2.410156 4.964843-.96875 10.097656-1.472657 15.351562-1.472657 17.210938 0 33.136719 5.449219 46.191406 14.691407zm0 0" fill="#ebad88"/><path d="m479.671875 512h-447.34375c-2.207031 0-4-1.789062-4-4v-189.160156h455.34375v189.160156c0 2.210938-1.792969 4-4 4zm0 0" fill="#4c779f"/><path d="m479.671875 512h-26.90625v-193.160156h30.90625v189.160156c0 2.210938-1.792969 4-4 4zm0 0" fill="#3a5c7a"/><path d="m508 424.949219h-504c-2.210938 0-4-1.789063-4-4v-22.902344c0-2.210937 1.789062-4 4-4h504c2.210938 0 4 1.789063 4 4v22.902344c0 2.210937-1.789062 4-4 4zm0 0" fill="#fe5555"/><path d="m496.546875 334.292969h-481.09375c-8.535156 0-15.453125-6.917969-15.453125-15.453125 0-8.53125 6.917969-15.453125 15.453125-15.453125h481.09375c8.535156 0 15.453125 6.917969 15.453125 15.453125s-6.917969 15.453125-15.453125 15.453125zm0 0" fill="#bdf9ff"/><path d="m496.546875 303.386719h-30.90625c8.535156 0 15.453125 6.921875 15.453125 15.453125 0 8.535156-6.917969 15.453125-15.453125 15.453125h30.90625c8.535156 0 15.453125-6.917969 15.453125-15.453125 0-8.53125-6.917969-15.453125-15.453125-15.453125zm0 0" fill="#8cf2ff"/><path d="m103.851562 96.054688c0-14.792969-10.855468-26.785157-24.242187-26.785157s-24.238281 11.992188-24.238281 26.785157c0 14.792968 10.851562 26.785156 24.238281 26.785156s24.242187-11.992188 24.242187-26.785156zm0 0" fill="#d98868"/><path d="m236.683594 96.054688c0-14.792969-10.851563-26.785157-24.242188-26.785157-13.386718 0-24.238281 11.992188-24.238281 26.785157 0 14.792968 10.851563 26.785156 24.238281 26.785156 13.390625 0 24.242188-11.992188 24.242188-26.785156zm0 0" fill="#d98868"/><path d="m85.246094 112.410156v-44.863281c0-31.613281 25.632812-57.246094 57.246094-57.246094h7.070312c31.617188 0 57.246094 25.632813 57.246094 57.246094v44.863281c0 33.503906-27.15625 60.660156-60.660156 60.660156h-.242188c-33.5 0-60.660156-27.15625-60.660156-60.660156zm0 0" fill="#ebad88"/><path d="m192.222656 187.761719c-4.574218 5.347656-10.054687 9.898437-16.214844 13.390625-11.496093-13.453125-27.382812-23.042969-45.433593-26.578125.03125-.011719.074219-.011719.105469-.03125 4.964843-.96875 10.09375-1.472657 15.347656-1.472657 17.214844 0 33.140625 5.449219 46.195312 14.691407zm0 0" fill="#e8916f"/><path d="m149.671875 10.300781h-7.289063c-4.046874 0-7.996093.429688-11.808593 1.234375 25.890625 5.460938 45.328125 28.511719 45.328125 56.125v44.636719c0 28.289063-19.253906 52.0625-45.328125 58.835937 4.863281 1.261719 9.960937 1.9375 15.214843 1.9375h.476563c33.4375 0 60.542969-27.207031 60.542969-60.773437v-44.636719c0-31.679687-25.582032-57.359375-57.136719-57.359375zm0 0" fill="#e8916f"/><path d="m210 83.972656c-1.691406 4.402344-7.324219 6.089844-11.105469 3.164063-7.953125-6.121094-11.402343-20.683594-12.707031-28.34375-.527344-3.101563-2.363281-5.8125-4.984375-7.558594-5.984375-3.996094-9.957031-7.988281-12.5625-11.320313-2.71875-3.476562-7.683594-4.050781-11.246094-1.445312-11.445312 8.359375-31.386719 12.53125-42.589843 14.3125-4.757813.753906-8.550782 4.367188-9.515626 9.085938-1.632812 8.003906-5.136718 19.894531-12.121093 25.269531-3.78125 2.925781-9.414063 1.238281-11.105469-3.164063-5.203125-13.515625-2.050781-30.082031-2.050781-30.082031s1.878906-45.195313 42.59375-51.941406c31.304687-5.179688 43.859375 1.167969 48.398437 5.050781 1.863282 1.59375 4.128906 2.648438 6.5625 2.960938 36.117188 4.617187 34.476563 43.929687 34.476563 43.929687s3.148437 16.566406-2.042969 30.082031zm0 0" fill="#804d36"/><path d="m212.039062 53.890625s1.644532-39.277344-34.425781-43.921875c-2.371093-.304688-4.644531-1.234375-6.4375-2.816406-4.179687-3.679688-15.695312-9.824219-44.195312-5.863282 6.253906 1.304688 10.105469 3.382813 12.390625 5.128907 2.621094 2.003906 5.75 3.261719 9.015625 3.796875 28.742187 4.710937 32.3125 32.128906 32.714843 40.945312 2.679688 1.777344 4.554688 4.539063 5.097657 7.710938 1.316406 7.679687 4.769531 22.164062 12.695312 28.265625 3.78125 2.925781 9.414063 1.238281 11.105469-3.164063 5.191406-13.515625 2.039062-30.082031 2.039062-30.082031zm0 0" fill="#663b29"/><path d="m176.933594 233.5625h-35.027344c-4.140625 0-7.5 3.359375-7.5 7.5 0 4.144531 3.359375 7.5 7.5 7.5h35.027344c4.144531 0 7.5-3.355469 7.5-7.5 0-4.140625-3.359375-7.5-7.5-7.5zm0 0" fill="#ffd659"/></svg>